<?xml version="1.0" encoding="UTF-8" standalone="no"?>
<!DOCTYPE svg PUBLIC "-//W3C//DTD SVG 1.1//EN" "http://www.w3.org/Graphics/SVG/1.1/DTD/svg11.dtd">
<svg width="100%" height="100%" viewBox="0 0 1000 1000" version="1.1" xmlns="http://www.w3.org/2000/svg" xmlns:xlink="http://www.w3.org/1999/xlink" xml:space="preserve" xmlns:serif="http://www.serif.com/" style="fill-rule:evenodd;clip-rule:evenodd;stroke-linejoin:round;stroke-miterlimit:2;">
    <g transform="matrix(1,0,0,1,-1050,0)">
        <rect id="Spotify-Companion" serif:id="Spotify Companion" x="1050" y="0" width="1000" height="1000" style="fill:none;"/>
        <g id="Spotify-Companion1" serif:id="Spotify Companion">
            <g transform="matrix(1,0,0,1,1050,0)">
                <path d="M499.997,1.01C224.419,1.01 1.007,224.416 1.007,499.994C1.007,775.596 224.419,998.99 499.997,998.99C775.593,998.99 998.993,775.596 998.993,499.994C998.993,224.416 775.593,1.01 499.997,1.01Z" style="fill:rgb(30,215,96);fill-rule:nonzero;"/>
            </g>
            <g transform="matrix(1,0,0,1,30.1442,4.13375)">
                <g transform="matrix(-0.285076,-0.285076,-0.285076,0.285076,1908.26,214.584)">
                    <path d="M795.167,443.376C634.321,347.854 369.01,339.071 215.463,385.679C190.8,393.157 164.725,379.237 157.259,354.581C149.781,329.906 163.689,303.849 188.363,296.354C364.63,242.851 657.637,253.19 842.806,363.108C864.99,376.27 872.265,404.913 859.115,427.055C845.958,449.233 817.291,456.544 795.167,443.376Z" style="fill:white;fill-rule:nonzero;"/>
                    <path d="M751.949,564.684C740.669,582.995 716.727,588.734 698.441,577.495C586.314,508.575 438.634,483.081 299.235,537.103C279.198,544.868 256.935,531.722 250.685,511.189C244.488,490.614 256.582,470.36 276.628,462.668C429.133,404.154 605.6,429.126 739.15,511.2C757.447,522.444 763.193,546.415 751.949,564.684Z" style="fill:white;fill-rule:nonzero;"/>
                    <path d="M653.763,711.72C644.802,726.42 625.655,731.024 611.005,722.07C536.693,676.654 479.212,643.389 358.719,681.042C342.329,686.164 325.298,674.386 321.484,657.655C317.647,640.917 328.536,625.811 344.872,620.42C454.769,584.15 553.171,613.784 643.449,668.95C658.111,677.909 662.731,697.062 653.763,711.72Z" style="fill:white;fill-rule:nonzero;"/>
                </g>
                <g transform="matrix(1,0,0,1,1199.86,279.866)">
                    <path d="M32,224L64,224L64,416L32,416C31.987,416 31.974,416 31.962,416C14.428,416 -0,401.572 -0,384.038C-0,384.026 -0,384.013 0,384L0,256C-0,255.987 -0,255.974 -0,255.962C-0,238.428 14.428,224 31.962,224C31.974,224 31.987,224 32,224ZM544,176L544,448C543.965,483.096 515.096,511.965 480,512L160,512C124.904,511.965 96.035,483.096 96,448L96,176C96,175.991 96,175.983 96,175.974C96,132.102 132.102,96 175.974,96C175.983,96 175.991,96 176,96L288,96L288,49.993C288,32.438 302.445,17.993 320,17.993C337.555,17.993 352,32.438 352,49.993L352,96L464,96C464.009,96 464.017,96 464.026,96C507.898,96 544,132.102 544,175.974C544,175.983 544,175.991 544,176ZM264,256C264,234.057 245.943,216 224,216C202.057,216 184,234.057 184,256C184,277.943 202.057,296 224,296C224.001,296 224.002,296 224.003,296C245.945,296 264,277.945 264,256.003C264,256.002 264,256.001 264,256ZM256,384L192,384L192,416L256,416L256,384ZM352,384L288,384L288,416L352,416L352,384ZM456,256C456,234.057 437.943,216 416,216C394.057,216 376,234.057 376,256C376,277.943 394.057,296 416,296C416.001,296 416.002,296 416.003,296C437.945,296 456,277.945 456,256.003C456,256.002 456,256.001 456,256ZM448,384L384,384L384,416L448,416L448,384ZM640,256L640,384C640,384.013 640,384.026 640,384.038C640,401.572 625.572,416 608.038,416C608.026,416 608.013,416 608,416L576,416L576,224L608,224C608.013,224 608.026,224 608.038,224C625.572,224 640,238.428 640,255.962C640,255.974 640,255.987 640,256Z" style="fill:white;fill-rule:nonzero;"/>
                </g>
            </g>
        </g>
    </g>
</svg>
